<?xml version="1.0" encoding="utf-8"?>
<!-- Generator: Adobe Illustrator 21.1.0, SVG Export Plug-In . SVG Version: 6.00 Build 0)  -->
<svg version="1.1" id="Слой_1" xmlns="http://www.w3.org/2000/svg" xmlns:xlink="http://www.w3.org/1999/xlink" x="0px" y="0px"
	 viewBox="0 0 81.3 107.6" style="enable-background:new 0 0 81.3 107.6;" xml:space="preserve">
<style type="text/css">
	.st0{fill:none;}
	.st1{fill:#0247CD;}
	.st2{fill:#0247CD;stroke:#000000;stroke-width:0.25;stroke-miterlimit:10;}
</style>
<rect x="29.6" y="44.6" class="st0" width="5.9" height="4.5"/>
<rect x="29.6" y="67" class="st0" width="5.9" height="4.5"/>
<rect x="29.6" y="55.8" class="st0" width="5.9" height="4.5"/>
<rect x="45.7" y="67" class="st0" width="5.9" height="4.5"/>
<rect x="45.7" y="78.2" class="st0" width="5.9" height="4.5"/>
<rect x="13.4" y="55.8" class="st0" width="5.9" height="4.5"/>
<rect x="29.6" y="78.2" class="st0" width="5.9" height="4.5"/>
<rect x="13.4" y="78.2" class="st0" width="5.9" height="4.5"/>
<rect x="13.4" y="67" class="st0" width="5.9" height="4.5"/>
<rect x="13.4" y="44.6" class="st0" width="5.9" height="4.5"/>
<rect x="45.7" y="55.8" class="st0" width="5.9" height="4.5"/>
<rect x="45.7" y="44.6" class="st0" width="5.9" height="4.5"/>
<rect x="61.9" y="67" class="st0" width="5.9" height="4.5"/>
<rect x="61.9" y="55.8" class="st0" width="5.9" height="4.5"/>
<rect x="10.9" y="13.5" class="st0" width="58.2" height="20.3"/>
<path class="st0" d="M3.1,88h73.8V2H3.1V88z M21.3,83.8c0,0.5-0.4,1-1,1h-7.9c-0.5,0-1-0.4-1-1v-6.5c0-0.5,0.4-1,1-1h7.9
	c0.5,0,1,0.4,1,1V83.8z M21.3,72.5c0,0.5-0.4,1-1,1h-7.9c-0.5,0-1-0.4-1-1V66c0-0.5,0.4-1,1-1h7.9c0.5,0,1,0.4,1,1V72.5z M21.3,61.3
	c0,0.5-0.4,1-1,1h-7.9c-0.5,0-1-0.4-1-1v-6.5c0-0.5,0.4-1,1-1h7.9c0.5,0,1,0.4,1,1V61.3z M21.3,50.1c0,0.5-0.4,1-1,1h-7.9
	c-0.5,0-1-0.4-1-1v-6.5c0-0.5,0.4-1,1-1h7.9c0.5,0,1,0.4,1,1V50.1z M37.5,83.8c0,0.5-0.4,1-1,1h-7.9c-0.5,0-1-0.4-1-1v-6.5
	c0-0.5,0.4-1,1-1h7.9c0.5,0,1,0.4,1,1V83.8z M37.5,72.5c0,0.5-0.4,1-1,1h-7.9c-0.5,0-1-0.4-1-1V66c0-0.5,0.4-1,1-1h7.9
	c0.5,0,1,0.4,1,1V72.5z M37.5,61.3c0,0.5-0.4,1-1,1h-7.9c-0.5,0-1-0.4-1-1v-6.5c0-0.5,0.4-1,1-1h7.9c0.5,0,1,0.4,1,1V61.3z
	 M37.5,50.1c0,0.5-0.4,1-1,1h-7.9c-0.5,0-1-0.4-1-1v-6.5c0-0.5,0.4-1,1-1h7.9c0.5,0,1,0.4,1,1V50.1z M53.6,83.8c0,0.5-0.4,1-1,1
	h-7.9c-0.5,0-1-0.4-1-1v-6.5c0-0.5,0.4-1,1-1h7.9c0.5,0,1,0.4,1,1V83.8z M53.6,72.5c0,0.5-0.4,1-1,1h-7.9c-0.5,0-1-0.4-1-1V66
	c0-0.5,0.4-1,1-1h7.9c0.5,0,1,0.4,1,1V72.5z M53.6,61.3c0,0.5-0.4,1-1,1h-7.9c-0.5,0-1-0.4-1-1v-6.5c0-0.5,0.4-1,1-1h7.9
	c0.5,0,1,0.4,1,1V61.3z M53.6,50.1c0,0.5-0.4,1-1,1h-7.9c-0.5,0-1-0.4-1-1v-6.5c0-0.5,0.4-1,1-1h7.9c0.5,0,1,0.4,1,1V50.1z
	 M69.8,83.8c0,0.5-0.4,1-1,1h-7.9c-0.5,0-1-0.4-1-1v-6.5c0-0.5,0.4-1,1-1h7.9c0.5,0,1,0.4,1,1V83.8z M69.8,72.5c0,0.5-0.4,1-1,1
	h-7.9c-0.5,0-1-0.4-1-1V66c0-0.5,0.4-1,1-1h7.9c0.5,0,1,0.4,1,1V72.5z M69.8,61.3c0,0.5-0.4,1-1,1h-7.9c-0.5,0-1-0.4-1-1v-6.5
	c0-0.5,0.4-1,1-1h7.9c0.5,0,1,0.4,1,1V61.3z M69.8,50.1c0,0.5-0.4,1-1,1h-7.9c-0.5,0-1-0.4-1-1v-6.5c0-0.5,0.4-1,1-1h7.9
	c0.5,0,1,0.4,1,1V50.1z M8.9,12.5c0-0.5,0.4-1,1-1H70c0.5,0,1,0.4,1,1v22.3c0,0.5-0.4,1-1,1H9.9c-0.5,0-1-0.4-1-1V12.5z"/>
<rect x="61.9" y="44.6" class="st0" width="5.9" height="4.5"/>
<rect x="61.9" y="78.2" class="st0" width="5.9" height="4.5"/>
<path class="st1" d="M77.8,0H2.1c-0.5,0-1,0.4-1,1v88c0,0.5,0.4,1,1,1h75.7c0.5,0,1-0.4,1-1V1C78.8,0.4,78.3,0,77.8,0z M76.8,88H3.1
	V2h73.8L76.8,88L76.8,88z"/>
<path class="st1" d="M9.9,35.8H70c0.5,0,1-0.4,1-1V12.5c0-0.5-0.4-1-1-1H9.9c-0.5,0-1,0.4-1,1v22.3C8.9,35.4,9.3,35.8,9.9,35.8z
	 M10.9,13.5H69v20.3H10.9V13.5z"/>
<path class="st1" d="M20.3,42.6h-7.9c-0.5,0-1,0.4-1,1v6.5c0,0.5,0.4,1,1,1h7.9c0.5,0,1-0.4,1-1v-6.5C21.3,43,20.9,42.6,20.3,42.6z
	 M19.3,49.1h-5.9v-4.5h5.9V49.1z"/>
<path class="st1" d="M36.5,42.6h-7.9c-0.5,0-1,0.4-1,1v6.5c0,0.5,0.4,1,1,1h7.9c0.5,0,1-0.4,1-1v-6.5C37.5,43,37,42.6,36.5,42.6z
	 M35.5,49.1h-5.9v-4.5h5.9V49.1z"/>
<path class="st1" d="M52.6,42.6h-7.9c-0.5,0-1,0.4-1,1v6.5c0,0.5,0.4,1,1,1h7.9c0.5,0,1-0.4,1-1v-6.5C53.6,43,53.2,42.6,52.6,42.6z
	 M51.6,49.1h-5.9v-4.5h5.9V49.1z"/>
<path class="st1" d="M68.8,42.6h-7.9c-0.5,0-1,0.4-1,1v6.5c0,0.5,0.4,1,1,1h7.9c0.5,0,1-0.4,1-1v-6.5C69.8,43,69.3,42.6,68.8,42.6z
	 M67.8,49.1h-5.9v-4.5h5.9V49.1z"/>
<path class="st1" d="M20.3,53.8h-7.9c-0.5,0-1,0.4-1,1v6.5c0,0.5,0.4,1,1,1h7.9c0.5,0,1-0.4,1-1v-6.5C21.3,54.3,20.9,53.8,20.3,53.8
	z M19.3,60.3h-5.9v-4.5h5.9V60.3z"/>
<path class="st1" d="M36.5,53.8h-7.9c-0.5,0-1,0.4-1,1v6.5c0,0.5,0.4,1,1,1h7.9c0.5,0,1-0.4,1-1v-6.5C37.5,54.3,37,53.8,36.5,53.8z
	 M35.5,60.3h-5.9v-4.5h5.9V60.3z"/>
<path class="st1" d="M52.6,53.8h-7.9c-0.5,0-1,0.4-1,1v6.5c0,0.5,0.4,1,1,1h7.9c0.5,0,1-0.4,1-1v-6.5C53.6,54.3,53.2,53.8,52.6,53.8
	z M51.6,60.3h-5.9v-4.5h5.9V60.3z"/>
<path class="st1" d="M68.8,53.8h-7.9c-0.5,0-1,0.4-1,1v6.5c0,0.5,0.4,1,1,1h7.9c0.5,0,1-0.4,1-1v-6.5C69.8,54.3,69.3,53.8,68.8,53.8
	z M67.8,60.3h-5.9v-4.5h5.9V60.3z"/>
<path class="st1" d="M20.3,65.1h-7.9c-0.5,0-1,0.4-1,1v6.5c0,0.5,0.4,1,1,1h7.9c0.5,0,1-0.4,1-1V66C21.3,65.5,20.9,65.1,20.3,65.1z
	 M19.3,71.6h-5.9V67h5.9V71.6z"/>
<path class="st1" d="M36.5,65.1h-7.9c-0.5,0-1,0.4-1,1v6.5c0,0.5,0.4,1,1,1h7.9c0.5,0,1-0.4,1-1V66C37.5,65.5,37,65.1,36.5,65.1z
	 M35.5,71.6h-5.9V67h5.9V71.6z"/>
<path class="st1" d="M52.6,65.1h-7.9c-0.5,0-1,0.4-1,1v6.5c0,0.5,0.4,1,1,1h7.9c0.5,0,1-0.4,1-1V66C53.6,65.5,53.2,65.1,52.6,65.1z
	 M51.6,71.6h-5.9V67h5.9V71.6z"/>
<path class="st1" d="M68.8,65.1h-7.9c-0.5,0-1,0.4-1,1v6.5c0,0.5,0.4,1,1,1h7.9c0.5,0,1-0.4,1-1V66C69.8,65.5,69.3,65.1,68.8,65.1z
	 M67.8,71.6h-5.9V67h5.9V71.6z"/>
<path class="st1" d="M20.3,76.3h-7.9c-0.5,0-1,0.4-1,1v6.5c0,0.5,0.4,1,1,1h7.9c0.5,0,1-0.4,1-1v-6.5C21.3,76.7,20.9,76.3,20.3,76.3
	z M19.3,82.8h-5.9v-4.5h5.9V82.8z"/>
<path class="st1" d="M36.5,76.3h-7.9c-0.5,0-1,0.4-1,1v6.5c0,0.5,0.4,1,1,1h7.9c0.5,0,1-0.4,1-1v-6.5C37.5,76.7,37,76.3,36.5,76.3z
	 M35.5,82.8h-5.9v-4.5h5.9V82.8z"/>
<path class="st1" d="M52.6,76.3h-7.9c-0.5,0-1,0.4-1,1v6.5c0,0.5,0.4,1,1,1h7.9c0.5,0,1-0.4,1-1v-6.5C53.6,76.7,53.2,76.3,52.6,76.3
	z M51.6,82.8h-5.9v-4.5h5.9V82.8z"/>
<path class="st1" d="M68.8,76.3h-7.9c-0.5,0-1,0.4-1,1v6.5c0,0.5,0.4,1,1,1h7.9c0.5,0,1-0.4,1-1v-6.5C69.8,76.7,69.3,76.3,68.8,76.3
	z M67.8,82.8h-5.9v-4.5h5.9V82.8z"/>
<path class="st2" d="M81.1,103c0-0.6-0.2-1.1-0.6-1.5s-0.9-0.6-1.5-0.6c-0.5,0-0.9,0.2-1.3,0.4c-0.2-0.7-0.5-1.3-0.9-1.7
	c0,0-7-4-14.2-4s-20.2,0-20.2,0l1.4,1.4c0.6,0.6,1.5,0.6,2,0h10.9c0.7,0,1.4,0.4,2,0.9c0.2,0.2,0.4,0.5,0.6,0.8H42.9l0,0h-0.1h-1.3
	l0,0h-2.2h-13c-23.4,0-23.8,2.9-23.8,2.9v0.4c-1.2,0.4-2.2,1-2.2,1s1,0.6,2.2,1v0.4c0,0,0,0.1,0.2,0.2c0.7,0.7,4.4,2.6,23.6,2.6
	h14.4l0,0h2.2l0,0h18.6h1.4c0.8,0,1.6,0,2.3,0c0.1,0,0.2,0,0.4,0c0.3,0,0.5,0,0.8,0c0.2,0,0.3,0,0.5,0s0.5,0,0.7,0s0.4,0,0.5,0
	c0.2,0,0.4,0,0.6,0s0.4,0,0.6,0s0.4,0,0.5,0c0.2,0,0.4,0,0.6,0c0.1,0,0.3,0,0.4,0c0.3,0,0.5,0,0.8-0.1c0.1,0,0.1,0,0.2,0
	c0.3,0,0.6-0.1,1-0.1l0,0c0.3,0,0.6-0.1,0.9-0.1h0.1c0.2,0,0.5,0,0.7-0.1c0,0,0,0,0.1,0c0.2,0,0.4,0,0.6-0.1l0,0
	c0.8-0.1,1.3-0.2,1.5-0.2l0,0c0.1,0,0.1,0,0.1,0c0.4-0.5,0.7-1.1,0.9-1.7c0.4,0.3,0.8,0.4,1.3,0.4C80.1,105.2,81.1,104.2,81.1,103z
	 M67.5,106.1c-0.1,0-0.1,0-0.2,0c-0.3,0-0.5,0-0.8,0c-0.1,0-0.3,0-0.4,0c-0.2,0-0.3,0-0.5,0s-0.4,0-0.6,0c0,0,0,0-0.1,0
	c0-0.1,0-0.2,0-0.3c0-0.3,0.1-0.5,0.3-0.7c0.2-0.2,0.4-0.3,0.7-0.3h8.6c0.3,0,0.5,0.1,0.7,0.3c0.1,0.1,0.2,0.2,0.2,0.3
	C74,105.7,71.2,106,67.5,106.1z M74.6,101.2H66c-0.3,0-0.5-0.1-0.7-0.3c-0.2-0.2-0.3-0.4-0.3-0.7c0-0.1,0-0.2,0-0.2
	c3.6,0.1,6.4,0.3,8.4,0.4c0,0,0,0,0.1,0c0.2,0,0.3,0,0.4,0H74c0.2,0,0.4,0,0.6,0.1c0.1,0,0.1,0,0.2,0s0.1,0,0.2,0s0.2,0,0.3,0
	c0.1,0,0.1,0,0.2,0h0.1C75.4,100.9,75,101.2,74.6,101.2z M59.6,97.1c-0.1-0.1-0.3-0.3-0.4-0.4h3.4c4.1,0,8.1,1.4,10.7,2.5
	c-2.6-0.2-6.5-0.5-11.5-0.5h-0.2l0,0h-0.9C60.4,98.1,60.1,97.6,59.6,97.1z M26.4,106.2c-16.2,0-21-1.4-22.3-2v-2.3
	c0.3-0.2,0.9-0.4,1.9-0.6c2.7-0.6,8.4-1.4,20.4-1.4h13v6.3H26.4z M40.8,99.9h0.7v6.3h-0.7V99.9z M61.6,106.2H43v-6.3h16.7l0,0h1.9
	c0.8,0,1.5,0,2.2,0c0,0.1,0,0.2,0,0.3c0,0.6,0.2,1.1,0.6,1.5s0.9,0.6,1.5,0.6h8.6c0.8,0,1.4-0.4,1.8-1c0.4,1,0.4,2.4,0,3.4
	c-0.1-0.1-0.2-0.2-0.3-0.4c-0.4-0.4-0.9-0.6-1.5-0.6h-8.6c-1.2,0-2.2,1-2.2,2.2c0,0.1,0,0.2,0,0.3c-0.3,0-0.6,0-0.9,0H61.6z
	 M78.9,104.1c-0.3,0-0.5-0.1-0.7-0.3s-0.3-0.4-0.3-0.7c0-0.3,0.1-0.5,0.3-0.7c0.2-0.2,0.4-0.3,0.7-0.3c0.3,0,0.5,0.1,0.7,0.3
	s0.3,0.4,0.3,0.7C79.9,103.6,79.5,104.1,78.9,104.1z"/>
</svg>
